HIERARCHY
ROOT hip
{
	OFFSET 0.000000 0.000000 0.000000 
	CHANNELS 6 Xposition Yposition Zposition Xrotation Zrotation Yrotation
	JOINT abdomen
	{
		OFFSET 0.000000 3.402643 0.000000 
		CHANNELS 3 Xrotation Zrotation Yrotation
		JOINT chest
		{
			OFFSET 0.000000 8.438565 -0.680529 
			CHANNELS 3 Xrotation Zrotation Yrotation
			JOINT neck
			{
				OFFSET 0.000000 10.207942 -0.272212 
				CHANNELS 3 Xrotation Zrotation Yrotation
				JOINT head
				{
					OFFSET 0.000000 3.130431 0.000000 
					CHANNELS 3 Xrotation Zrotation Yrotation
					End Site
					{
						OFFSET 0.000000 3.130435 0.000000 
					}
				}
			}
			JOINT lCollar
			{
				OFFSET 3.470700 6.669187 -0.816635 
				CHANNELS 3 Yrotation Zrotation Xrotation
				JOINT lShldr
				{
					OFFSET 3.198488 0.000000 0.000000 
					CHANNELS 3 Zrotation Yrotation Xrotation
					JOINT lForeArm
					{
						OFFSET 10.139888 0.000000 0.000000 
						CHANNELS 3 Yrotation Zrotation Xrotation
						JOINT lHand
						{
							OFFSET 8.370511 0.000000 0.000000 
							CHANNELS 3 Zrotation Yrotation Xrotation
							End Site
							{
								OFFSET 4.083176 0.000000 0.000000 
							}
						}
					}
				}
			}
			JOINT rCollar
			{
				OFFSET -3.470700 6.669187 -0.816635 
				CHANNELS 3 Yrotation Zrotation Xrotation
				JOINT rShldr
				{
					OFFSET -3.198488 0.000000 0.000000 
					CHANNELS 3 Zrotation Yrotation Xrotation
					JOINT rForeArm
					{
						OFFSET -10.139888 0.000000 0.000000 
						CHANNELS 3 Yrotation Zrotation Xrotation
						JOINT rHand
						{
							OFFSET -8.370511 0.000000 0.000000 
							CHANNELS 3 Zrotation Yrotation Xrotation
							End Site
							{
								OFFSET -4.083176 0.000000 0.000000 
							}
						}
					}
				}
			}
		}
	}
	JOINT lThigh
	{
		OFFSET 5.308129 -1.633274 1.361059 
		CHANNELS 3 Xrotation Zrotation Yrotation
		JOINT lShin
		{
			OFFSET -2.041588 -20.007561 0.000000 
			CHANNELS 3 Xrotation Zrotation Yrotation
			JOINT lFoot
			{
				OFFSET 0.000000 -19.190928 -1.224953 
				CHANNELS 3 Xrotation Yrotation Zrotation
				End Site
				{
					OFFSET 0.000000 -2.449906 4.627600 
				}
			}
		}
	}
	JOINT rThigh
	{
		OFFSET -5.308129 -1.633274 1.361059 
		CHANNELS 3 Xrotation Zrotation Yrotation
		JOINT rShin
		{
			OFFSET 2.041588 -20.007561 0.000000 
			CHANNELS 3 Xrotation Zrotation Yrotation
			JOINT rFoot
			{
				OFFSET 0.000000 -19.190928 -1.224953 
				CHANNELS 3 Xrotation Yrotation Zrotation
				End Site
				{
					OFFSET 0.000000 -2.449906 4.627600 
				}
			}
		}
	}
}
MOTION
Frames: 8
Frame Time: 0.033333
-50.172577 51.271633 -39.667236 0.878906 -2.460938 -112.548828 21.686203 -17.081043 -4.833774 -7.963661 -8.557686 -5.263242 51.562500 8.076172 2.618559 -75.000000 7.158204 -23.367924 3.209433 -25.000000 10.822572 -39.606915 14.167535 -5.329652 -81.150513 -0.319315 -2.752603 34.190231 -1.003493 -0.261912 -0.248202 14.139083 13.518429 47.785656 -6.799892 -100.080360 74.803230 0.253755 -2.821131 31.942595 -71.548752 -68.850868 -17.100639 10.662812 -25.122192 21.377192 -5.465750 -2.555658 -1.052550 -1.486841 -10.622824 0.028112 -14.597856 -33.834900 37.930157 4.222074 3.415534 13.187106 -24.479090 -0.681120 
-50.618984 51.706570 -40.566734 1.757813 -2.988281 -115.596214 21.427149 -17.912205 -3.029274 -7.645133 -7.857066 -4.647353 51.562500 8.076172 2.618559 -75.693359 7.500000 -22.371773 3.854001 -25.000000 11.339112 -42.882744 17.375658 -8.899783 -79.044731 -0.105200 -2.692663 32.789543 -2.164577 0.125896 -0.716776 12.979985 13.863663 46.073872 -3.673563 -97.650162 75.330467 0.263126 -2.808441 32.708908 -71.191612 -70.953255 -16.715864 12.001303 -24.240141 21.376633 -5.469356 -2.545622 -0.021279 0.412306 -10.202942 2.457986 -13.014886 -34.736855 35.110714 4.124648 3.087814 10.889918 -21.168251 1.159420 
-51.043159 52.125698 -41.479836 2.812500 -3.515625 -118.838486 21.277250 -18.356487 -1.245155 -7.317243 -7.156114 -3.835588 51.562500 8.076172 2.618559 -76.923828 7.841796 -20.576170 4.339820 -25.000000 11.758346 -45.749344 20.750668 -13.024051 -77.101723 -0.070151 -2.594194 32.111950 -3.602367 1.016637 -0.714335 12.101147 13.852987 43.897751 0.329145 -94.348671 76.397850 0.106368 -2.832117 31.759584 -70.111687 -70.841270 -16.559475 13.456022 -21.088821 22.076698 -5.351605 -2.965996 2.645128 3.088972 -9.413332 5.197534 -11.292832 -35.464413 31.423761 4.515687 2.827985 8.895831 -18.323324 3.156571 
-51.357533 52.481560 -42.316898 3.691406 -4.042969 -122.265617 21.249220 -18.345541 0.297617 -6.989829 -6.455049 -3.200983 51.562500 8.076172 2.618559 -78.525391 8.037109 -17.890625 4.323924 -25.000000 11.726132 -47.274441 24.774923 -15.891219 -75.341278 -0.204715 -2.593508 31.677837 -4.328110 1.621006 0.386601 10.891373 13.470634 42.403770 3.997956 -91.514221 78.695702 -0.037859 -2.967633 29.781630 -68.893456 -69.511162 -17.101103 14.674258 -17.784561 23.473906 -5.058912 -2.692656 4.966023 5.645537 -7.802064 8.029607 -9.771704 -35.769001 27.361275 4.564489 2.584073 7.116654 -15.654759 5.461915 
-51.505119 52.647617 -42.899109 4.755859 -4.560547 -125.908195 21.528839 -17.882700 1.656311 -6.318402 -5.394039 -2.166001 51.562500 8.076172 2.618559 -80.839844 7.460938 -14.345402 3.422682 -25.000000 11.163640 -46.021435 29.389700 -17.013514 -73.746506 -0.362030 -2.407259 31.959568 -4.742877 1.979732 4.209949 9.314503 11.942729 40.480221 7.023054 -90.613022 82.031929 0.188925 -3.130480 25.810219 -67.457924 -65.692093 -18.405355 15.565081 -15.071633 26.477188 -4.999977 -3.169683 8.570770 8.509789 -7.599127 9.820967 -8.719856 -35.465694 24.180542 4.719559 2.298446 4.817522 -12.877323 8.337843 
-51.486172 52.600178 -43.087509 5.820313 -4.726563 -129.698074 22.067032 -16.540365 3.173445 -5.652343 -4.176349 -0.702568 51.562500 8.076172 2.618559 -83.720703 5.742188 -10.067383 1.988523 -25.000000 10.133809 -43.259315 34.407360 -16.580635 -72.510315 -0.682152 -2.483157 33.097576 -5.109850 2.288463 9.711287 6.942406 9.724340 37.978794 9.208147 -90.295815 86.432526 -0.101150 -3.030939 21.712307 -65.372925 -61.765522 -18.689684 15.253078 -12.934824 31.584396 -4.649095 -3.439613 8.495964 11.480545 -7.109194 10.826818 -8.153963 -34.584049 22.427002 4.720391 2.125572 1.823240 -10.807750 11.558360 
-50.767544 52.299667 -42.421722 7.050782 -4.892579 -134.571152 22.749466 -14.789184 4.593750 -4.810775 -2.621539 0.867792 51.562500 8.076172 2.618559 -86.650391 3.398438 -5.272858 -0.013048 -25.000000 9.002474 -40.290539 39.248520 -14.376394 -71.107468 -0.481893 -2.580260 34.321587 -5.470376 2.876471 14.415857 4.997426 7.592909 34.190216 10.953458 -88.718056 91.207336 -0.549653 -3.054611 16.628790 -63.039291 -56.259487 -19.103863 14.625319 -11.302804 38.429432 -4.132623 -3.989703 10.025188 16.390619 -6.262227 9.221855 -8.669659 -31.858164 23.828739 4.739263 2.263661 -1.087783 -8.685174 12.028214 
-50.249954 51.951725 -41.140572 8.642578 -4.873047 -141.201996 23.426966 -12.743545 5.700119 -3.971730 -1.075748 2.310445 51.562500 8.076172 2.618559 -89.316406 0.781250 0.420054 -1.615368 -25.000000 8.017941 -39.419403 43.810490 -11.571982 -69.698685 -0.623613 -2.717007 34.905437 -5.001845 3.326726 16.283447 4.508914 6.680320 28.895426 12.841167 -85.408875 95.432236 -0.842177 -2.840871 12.217653 -61.315399 -50.454220 -19.292694 14.158032 -9.635765 44.935509 -3.628644 -4.490113 13.525343 22.035887 -6.689911 5.800671 -10.136889 -27.829714 27.536213 4.581903 2.621753 -1.232857 -5.743110 13.165983 
